<?xml version="1.0" encoding="iso-8859-1"?>
<!-- Generator: Adobe Illustrator 23.0.0, SVG Export Plug-In . SVG Version: 6.00 Build 0)  -->
<svg xmlns="http://www.w3.org/2000/svg" xmlns:xlink="http://www.w3.org/1999/xlink" version="1.1" id="Two_Tone" x="0px" y="0px" viewBox="0 0 24 24" style="enable-background:new 0 0 24 24;" xml:space="preserve" width="24px" height="24px">
<path style="fill:none;stroke:#000000;stroke-width:2;stroke-miterlimit:10;" d="M20,7h-3c-0.55,0-1-0.45-1-1V5c0-0.55-0.45-1-1-1H9  C8.45,4,8,4.45,8,5v1c0,0.55-0.45,1-1,1H4C3.45,7,3,7.45,3,8v11c0,0.55,0.45,1,1,1h16c0.55,0,1-0.45,1-1V8C21,7.45,20.55,7,20,7z"/>
<circle style="fill:none;stroke:#000000;stroke-width:2;stroke-miterlimit:10;" cx="12" cy="13" r="3"/>
<circle cx="18" cy="10" r="1"/>
<path style="opacity:0.3;" d="M20,7h-3c-0.55,0-1-0.45-1-1V5c0-0.55-0.45-1-1-1H9C8.45,4,8,4.45,8,5v1c0,0.55-0.45,1-1,1H4  C3.45,7,3,7.45,3,8v11c0,0.55,0.45,1,1,1h16c0.55,0,1-0.45,1-1V8C21,7.45,20.55,7,20,7z M12,16c-1.657,0-3-1.343-3-3s1.343-3,3-3  s3,1.343,3,3S13.657,16,12,16z"/>
</svg>
